<?xml version="1.0" standalone="no"?>
<!DOCTYPE svg PUBLIC "-//W3C//DTD SVG 20010904//EN"
 "http://www.w3.org/TR/2001/REC-SVG-20010904/DTD/svg10.dtd">
<svg version="1.0" xmlns="http://www.w3.org/2000/svg"
 width="900.000000pt" height="249.000000pt" viewBox="0 0 900.000000 249.000000"
 preserveAspectRatio="xMidYMid meet">
<metadata>
Created by potrace 1.10, written by Peter Selinger 2001-2011
</metadata>
<g transform="translate(0.000000,249.000000) scale(0.100000,-0.100000)"
fill="#000000" stroke="none">
<path d="M8905 2440 c-16 -5 -50 -14 -75 -20 -25 -6 -52 -15 -60 -19 -9 -5
-36 -12 -60 -16 -25 -4 -49 -11 -55 -15 -5 -4 -30 -11 -55 -15 -24 -4 -51 -11
-60 -16 -8 -4 -35 -13 -60 -19 -43 -11 -89 -23 -202 -55 -29 -8 -80 -21 -113
-30 -33 -9 -82 -22 -110 -30 -27 -7 -70 -19 -95 -25 -25 -6 -52 -15 -60 -19
-9 -5 -36 -12 -60 -16 -24 -4 -51 -11 -60 -16 -8 -4 -35 -13 -60 -19 -51 -12
-131 -34 -205 -55 -55 -15 -140 -39 -225 -61 -30 -9 -77 -21 -105 -29 -27 -7
-70 -19 -95 -25 -25 -6 -52 -15 -60 -19 -9 -5 -36 -12 -60 -16 -24 -4 -51 -11
-60 -15 -8 -4 -35 -13 -60 -19 -71 -19 -141 -38 -200 -55 -30 -10 -80 -23
-110 -31 -30 -8 -81 -21 -112 -30 -32 -8 -84 -22 -115 -31 -32 -9 -80 -22
-108 -29 -27 -8 -70 -19 -95 -25 -25 -6 -52 -15 -60 -19 -9 -5 -36 -12 -60
-16 -24 -4 -51 -11 -60 -16 -8 -4 -35 -13 -60 -19 -51 -12 -131 -34 -205 -55
-198 -55 -373 -102 -435 -117 -25 -6 -49 -14 -55 -18 -5 -4 -30 -11 -55 -15
-25 -4 -49 -11 -55 -15 -5 -4 -30 -11 -55 -15 -24 -4 -51 -11 -60 -16 -8 -4
-35 -13 -60 -19 -25 -6 -67 -17 -95 -25 -27 -8 -75 -21 -105 -29 -30 -8 -80
-22 -110 -30 -133 -36 -177 -48 -215 -57 -22 -5 -49 -13 -60 -18 -11 -5 -40
-14 -65 -21 -53 -13 -135 -35 -205 -55 -27 -8 -77 -21 -110 -30 -128 -35 -162
-44 -217 -59 -32 -9 -82 -23 -110 -30 -29 -8 -73 -20 -98 -26 -25 -6 -52 -15
-60 -19 -9 -5 -36 -12 -60 -16 -25 -4 -49 -11 -55 -15 -5 -4 -30 -12 -55 -18
-43 -10 -94 -24 -210 -56 -30 -8 -82 -22 -115 -31 -33 -9 -84 -23 -112 -31
-254 -69 -264 -72 -313 -84 -25 -7 -54 -15 -65 -20 -11 -5 -40 -13 -65 -20
-57 -14 -184 -48 -315 -85 -225 -62 -263 -72 -315 -85 -25 -6 -52 -15 -60 -19
-9 -5 -36 -12 -60 -16 -25 -4 -49 -11 -55 -15 -5 -4 -30 -11 -55 -15 -24 -4
-51 -11 -60 -16 -8 -4 -35 -13 -60 -19 -51 -12 -131 -34 -205 -55 -27 -8 -77
-21 -110 -30 -33 -9 -85 -23 -115 -32 -30 -8 -77 -21 -105 -28 -27 -8 -70 -19
-95 -25 -25 -6 -52 -15 -60 -19 -9 -5 -36 -12 -60 -16 -24 -4 -51 -11 -60 -16
-8 -4 -35 -13 -60 -19 -25 -6 -67 -17 -95 -25 -27 -8 -76 -21 -107 -29 -32 -9
-84 -23 -115 -32 -32 -8 -80 -21 -108 -29 -42 -11 645 -13 4418 -14 l4467 -1
0 1225 0 1225 -32 -1 c-18 -1 -46 -5 -63 -9z"/>
</g>
</svg>
