<svg xmlns:dc="http://purl.org/dc/elements/1.1/" xmlns:cc="http://creativecommons.org/ns#" xmlns:rdf="http://www.w3.org/1999/02/22-rdf-syntax-ns#" xmlns:svg="http://www.w3.org/2000/svg" xmlns="http://www.w3.org/2000/svg" xmlns:sodipodi="http://sodipodi.sourceforge.net/DTD/sodipodi-0.dtd" xmlns:inkscape="http://www.inkscape.org/namespaces/inkscape" version="1.1" x="0px" y="0px" viewBox="0 0 100 125"><g transform="translate(0,-952.36218)"><g transform="translate(7.994095,960.35628)"><path fill="#2f1611" style="text-indent:0;text-transform:none;direction:ltr;block-progression:tb;baseline-shift:baseline;color:#000000;enable-background:accumulate;" d="m 32.880905,7.0059 c -0.38081,0.0444 -0.72481,0.337446 -0.84375,0.71875 l -3.59375,11.28125 -11.4375,0 0,-2 c 6e-5,-0.523543 -0.47634,-0.999948 -1,-1 l -8.09375,0 c -0.49166,0.04633 -0.90849,0.506278 -0.90625,1 l 0,2.0625 c -2.95214,0.286176 -6.92062,1.924546 -7,4.9375 l 0,48 c 0.76476,3.871724 4.84278,4.974164 8,5 l 68,0 c 3.22961,-0.110378 7.9093,-1.555023 8,-5 l 0,-48 c -0.7691,-3.833913 -4.866,-4.97268 -8,-5 l -20.4375,0 -3.59375,-11.28125 c -0.1307,-0.410165 -0.52452,-0.712095 -0.9375,-0.71875 z m 0.8125,2.09375 16.625,0 3.1875,9.90625 -23,0 z m -24.6874996,8.9375 5.9999996,0 0,1 -5.9999996,0 z m -1.0000004,2.96875 68,0 c 2.59482,0.113119 5.00527,0.713382 6,3 l 0,9 -26.8125,0.03125 c -3.52541,-3.107836 -8.13014,-5.03125 -13.1875,-5.03125 -5.06286,0 -9.6919,1.917371 -13.21875,5.03125 l -26.78125,-0.03125 0,-9 c 0.80633,-2.398768 3.75525,-2.936777 6,-3 z m 34,9 c 9.94831,0 17.96875,8.046768 17.96875,18 0,9.953232 -8.02044,18 -17.96875,18 -9.9483,0 -18,-8.046768 -18,-18 0,-9.953232 8.0517,-18 18,-18 z m -40,5 24.78125,0.03125 c -2.98439,3.496371 -4.78125,8.020917 -4.78125,12.96875 0,7.18097 3.80639,13.47222 9.5,17 l -29.5,0 z m 40,0 c -7.16788,0 -13,5.832122 -13,13 0,7.167879 5.83212,13 13,13 7.16788,0 13,-5.832121 13,-13 0,-7.167878 -5.83212,-13 -13,-13 z m 40,0 0,30 -29.5,0 c 5.69361,-3.52778 9.5,-9.81903 9.5,-17 0,-4.947833 -1.82811,-9.472379 -4.8125,-12.96875 z m -40,2 c 6.087,0 11,4.913001 11,11 0,6.086999 -4.913,11 -11,11 -6.087,0 -11,-4.913001 -11,-11 0,-6.086999 4.913,-11 11,-11 z m -40,30 33.8125,0 c 1.95171,0.637089 4.0256,1 6.1875,1 2.16191,0 4.23579,-0.362911 6.1875,-1 l 33.8125,0 0,5 c -0.83075,2.439358 -3.8442,2.981028 -6,3 l -68,0 c -2.59482,-0.113119 -5.00527,-0.713382 -6,-3 z" fill-opacity="1" stroke="none" marker="none" visibility="visible" display="inline" overflow="visible"/></g></g></svg>